<svg version="1.1" id="Layer_1" xmlns="http://www.w3.org/2000/svg" xmlns:xlink="http://www.w3.org/1999/xlink" x="0px" y="0px"
	 width="100%" viewBox="0 0 512 512" enable-background="new 0 0 512 512" xml:space="preserve">
<path fill="#000000" opacity="1.000000" stroke="none" 
	d="
M249.000000,513.000000 
	C166.368942,513.000000 83.737877,513.000000 1.053407,513.000000 
	C1.053407,342.442474 1.053407,171.884903 1.053407,1.000000 
	C83.355057,1.000000 165.710556,1.000000 248.853683,1.253625 
	C249.076981,2.054354 248.512634,2.601458 247.608673,3.179820 
	C242.992279,7.395078 240.650818,12.260487 240.931870,18.463531 
	C241.233292,25.115898 240.999985,31.792494 241.000000,38.458515 
	C241.000015,44.508026 241.000000,50.557533 241.000000,57.698742 
	C233.911880,50.184921 227.764526,43.513332 221.436890,37.017353 
	C217.476776,32.951889 209.290512,31.954842 204.104126,33.882172 
	C194.872284,37.312847 190.398834,51.814789 200.568405,62.199211 
	C209.812988,71.639099 217.752258,82.567551 227.875427,90.881203 
	C239.377274,100.327087 242.021057,111.326111 241.245148,125.294662 
	C240.240356,143.383774 241.000000,161.570877 241.000000,179.629959 
	C224.191101,183.759171 209.869888,191.572769 198.141281,204.393768 
	C178.139130,192.858612 158.282211,181.488297 138.541000,169.920517 
	C136.057098,168.465027 133.003540,166.350006 132.212799,163.896347 
	C126.196365,145.227921 120.753868,126.375595 114.968964,107.631050 
	C112.338936,99.109131 102.506821,94.377235 94.188469,97.316452 
	C86.191750,100.142014 82.271324,108.949837 84.910904,117.648506 
	C87.420609,125.919159 89.687042,134.263626 92.183929,143.008148 
	C90.089531,141.978424 88.455132,141.287430 86.930145,140.406952 
	C76.591576,134.437820 66.350616,128.295074 55.925426,122.482269 
	C49.611336,118.961693 39.679607,121.344772 35.554398,126.953995 
	C31.677444,132.225632 31.429373,143.400925 37.276257,147.629578 
	C43.009804,151.776276 49.174961,155.340302 55.244743,159.004257 
	C62.087429,163.134781 69.035149,167.091309 76.360962,171.371094 
	C66.491737,173.712128 57.356518,175.589386 48.396328,178.093018 
	C40.765507,180.225235 35.435173,189.219482 37.296783,195.740524 
	C40.188175,205.868790 48.202522,210.995346 57.504864,208.796661 
	C75.707718,204.494263 93.964996,200.412994 112.106285,195.867172 
	C115.618828,194.987015 118.419312,195.420105 121.246506,197.053864 
	C140.671768,208.279083 160.035446,219.611389 179.506454,230.756317 
	C181.906555,232.130127 181.964783,233.072510 181.255219,235.699158 
	C178.043304,247.589005 176.958252,259.632690 179.911194,271.842468 
	C182.142380,281.067963 182.175690,281.441956 174.263062,286.131317 
	C156.081238,296.906708 137.706940,307.358673 119.339592,317.816895 
	C117.942177,318.612579 115.857452,318.964935 114.303833,318.606354 
	C95.295181,314.219452 76.329529,309.646606 57.345341,305.153168 
	C48.154716,302.977814 39.923862,308.430603 37.228844,318.413544 
	C35.468803,324.933105 40.904850,333.790741 48.569645,335.923157 
	C57.483921,338.403198 66.557114,340.312073 75.853920,342.538910 
	C75.276642,343.087921 74.885040,343.632233 74.355690,343.938354 
	C63.468647,350.234283 52.602634,356.568054 41.652863,362.753448 
	C34.781971,366.634796 31.077003,374.291382 33.102489,381.977173 
	C34.792221,388.388947 41.698204,393.279846 49.048985,393.127747 
	C56.507183,392.973450 61.503197,388.030151 67.417885,384.949402 
	C75.639526,380.667053 83.542526,375.772949 92.271530,370.743378 
	C89.656715,379.886810 87.569603,388.300842 84.817795,396.491577 
	C82.100060,404.580902 85.992859,413.718567 94.331871,416.745483 
	C102.854240,419.838959 112.210159,414.973053 114.993484,406.213745 
	C120.981186,387.370087 126.810158,368.475800 132.855530,349.650879 
	C133.370193,348.048218 134.738510,346.351105 136.181946,345.474915 
	C145.829117,339.618958 155.562164,333.900513 165.349380,328.280273 
	C176.234238,322.029724 187.206299,315.931000 198.272385,309.691772 
	C209.899734,322.634338 224.391357,330.135345 240.998795,334.346741 
	C240.998795,358.577087 241.060806,382.726074 240.874847,406.873108 
	C240.860764,408.701691 239.425369,410.834808 238.071243,412.285583 
	C230.267273,420.646301 222.203140,428.764191 214.398148,437.124023 
	C208.788513,443.132385 203.359375,449.315948 198.012390,455.560638 
	C194.010193,460.234772 193.798462,469.627655 197.306610,474.779297 
	C200.789169,479.893494 208.599228,482.486481 214.896957,480.614868 
	C221.797043,478.564209 225.502609,472.759064 230.061020,467.890167 
	C233.454163,464.265900 237.239334,461.008667 240.999771,457.446014 
	C240.999771,470.868256 241.020905,484.032898 240.990021,497.197357 
	C240.976501,502.960602 243.178894,507.543457 248.307983,511.015625 
	C248.784958,511.786530 248.892487,512.393250 249.000000,513.000000 
z"/>
<path fill="#000000" opacity="1.000000" stroke="none" 
	d="
M265.000000,1.000001 
	C347.631073,1.000000 430.262115,1.000000 512.946594,1.000000 
	C512.946594,171.557541 512.946594,342.115112 512.946594,513.000000 
	C430.644928,513.000000 348.289459,513.000000 265.146912,512.739136 
	C265.152130,511.671021 266.127441,510.976044 266.703979,510.036407 
	C268.877716,506.493652 272.331573,503.018951 272.726257,499.248718 
	C273.596527,490.935333 272.899902,482.457947 272.913696,473.578430 
	C272.984772,467.892578 272.984772,462.675781 272.984772,457.459015 
	C273.393433,457.234497 273.802063,457.010010 274.210724,456.785522 
	C275.536865,458.419434 276.753265,460.159149 278.208618,461.668427 
	C283.763672,467.429504 289.395752,473.116364 295.353943,479.010803 
	C304.627289,483.775360 314.409210,480.250092 317.999115,472.182220 
	C320.775787,465.942078 318.792175,457.472534 312.882446,451.343506 
	C305.206818,443.383087 297.535217,435.418060 289.936371,427.384521 
	C284.515259,421.653229 279.216827,415.805878 273.909668,409.734985 
	C273.654510,409.262878 273.353302,409.066101 273.041443,408.930725 
	C273.030823,408.992126 273.154053,409.010712 273.085022,408.541046 
	C273.058044,383.390839 273.100128,358.710266 273.540283,334.022064 
	C289.208832,330.233490 302.670197,323.244568 313.782257,311.909821 
	C314.701843,310.971802 317.192047,310.334290 318.194305,310.900146 
	C337.026062,321.531311 355.781219,332.300385 374.449890,343.216034 
	C377.913391,345.241150 380.910950,347.356567 382.255096,352.166931 
	C387.359528,370.434570 393.248779,388.486694 399.043060,406.555756 
	C401.167450,413.180481 405.775177,417.640137 416.022156,417.061035 
	C422.420563,416.699463 426.910309,413.164642 429.321320,406.261810 
	C431.703583,399.441315 428.133911,393.550629 426.663605,387.369354 
	C425.384491,381.991882 423.450836,376.770081 421.563629,370.698303 
	C434.230164,377.915192 445.934875,384.780518 457.832855,391.292786 
	C465.541260,395.511902 475.210724,392.850708 479.684418,384.788116 
	C483.643829,377.652435 480.287689,367.212463 472.925476,362.982666 
	C465.371002,358.642426 457.775665,354.373077 450.237915,350.004181 
	C446.173889,347.648682 442.192963,345.149750 438.139984,342.694550 
	C447.561951,340.384338 456.549164,338.436951 465.380249,335.937927 
	C473.063599,333.763702 478.533569,324.980408 476.833099,318.478577 
	C474.237823,308.555450 465.937927,302.986420 456.737610,305.105621 
	C438.192444,309.377319 419.601074,313.475830 401.175507,318.216003 
	C397.577026,319.141754 395.125610,318.251312 392.559875,316.777985 
	C373.244598,305.686707 354.022888,294.432373 334.705200,283.345276 
	C332.518158,282.090057 331.827667,281.351440 332.668793,278.497620 
	C336.900482,264.139557 336.603882,249.674454 332.811371,235.199524 
	C332.491882,233.979980 333.498901,231.592224 334.596497,230.943970 
	C353.912018,219.535934 373.317291,208.278976 392.771423,197.108200 
	C394.661804,196.022705 397.213409,194.775116 399.099518,195.198853 
	C418.123169,199.472549 437.036346,204.237991 456.058136,208.520569 
	C464.552307,210.432968 472.905945,208.433411 476.718689,195.750366 
	C478.723236,189.082245 473.213196,180.335312 465.141327,178.043716 
	C456.332825,175.543030 447.373230,173.574432 437.923706,171.236359 
	C449.682709,164.412384 460.929321,157.787659 472.275513,151.338135 
	C479.086609,147.466492 482.658691,139.983673 480.861542,132.630310 
	C479.056122,125.243057 473.294373,121.199638 465.076019,120.933945 
	C457.571777,120.691338 452.572388,125.882866 446.657440,128.960815 
	C438.407440,133.253876 430.509460,138.223434 421.749664,143.317047 
	C424.353607,134.157288 426.609283,125.807144 429.112366,117.531845 
	C431.731506,108.873009 427.698700,99.918076 419.741547,97.231140 
	C411.208832,94.349846 401.731445,98.998131 399.010223,107.679001 
	C393.237213,126.095398 387.725464,144.594406 381.829651,162.970688 
	C381.099976,165.244980 379.055695,167.572968 376.988159,168.860687 
	C367.812073,174.575790 358.442291,179.984711 349.072601,185.382980 
	C338.045410,191.736206 326.946014,197.964157 315.842010,204.266830 
	C303.860443,191.731583 289.936157,183.290359 273.073425,179.502655 
	C273.061462,154.353699 273.109436,129.668121 273.094604,104.992783 
	C273.031799,105.003021 273.054871,105.128204 273.318634,105.042427 
	C273.676270,104.636887 273.770142,104.317123 273.996948,103.683556 
	C282.496887,94.674805 290.948120,86.058815 299.202057,77.257805 
	C304.916412,71.164726 310.492310,64.929306 315.881836,58.547863 
	C320.501587,53.077885 320.293701,43.519691 315.810608,38.299393 
	C310.613159,32.247253 302.175659,30.978794 294.643585,35.189957 
	C287.445831,42.427601 280.580719,49.642502 272.835632,57.782215 
	C272.835632,50.922409 272.835632,45.461105 272.909729,39.536739 
	C272.988434,32.317364 273.073334,25.559626 272.953674,18.805515 
	C272.912476,16.482027 272.360657,14.167584 272.019653,11.636374 
	C271.997192,11.423738 271.845306,11.023981 271.887299,10.747458 
	C271.629700,10.267614 271.330109,10.064295 271.016541,9.498644 
	C269.482544,7.383420 267.899384,5.679955 266.470917,3.855387 
	C265.822601,3.027305 265.480835,1.959214 265.000000,1.000001 
z"/>
<path fill="#64DBFB" opacity="1.000000" stroke="none" 
	d="
M272.842651,474.047485 
	C272.899902,482.457947 273.596527,490.935333 272.726257,499.248718 
	C272.331573,503.018951 268.877716,506.493652 266.703979,510.036407 
	C266.127441,510.976044 265.152130,511.671021 264.679932,512.739136 
	C259.977905,513.000000 254.955811,513.000000 249.466858,513.000000 
	C248.892487,512.393250 248.784958,511.786530 248.393692,510.684387 
	C253.304703,504.777740 254.457474,498.235046 254.077805,490.978973 
	C253.697525,483.710907 253.800140,476.398560 254.126129,469.125092 
	C254.214752,467.148193 255.490417,464.055359 256.908173,463.596436 
	C258.774475,462.992218 261.760468,463.899841 263.479034,465.197998 
	C266.885040,467.770752 269.752563,471.056458 272.842651,474.047485 
z"/>
<path fill="#63DBFB" opacity="1.000000" stroke="none" 
	d="
M271.845306,11.023981 
	C271.845306,11.023981 271.997192,11.423738 272.005493,12.114900 
	C272.007812,21.868752 272.001831,30.931440 271.823486,40.277763 
	C268.991974,43.315639 266.581757,46.394302 263.577789,48.699215 
	C261.849640,50.025230 258.889984,51.004322 256.992493,50.438004 
	C255.573776,50.014572 254.272842,46.919613 254.131943,44.928432 
	C253.744934,39.459324 253.921097,33.943768 254.012558,28.448893 
	C254.161835,19.481867 254.960846,10.387570 247.948288,3.148558 
	C248.512634,2.601458 249.076981,2.054354 249.320663,1.253625 
	C254.022095,1.000000 259.044189,1.000000 264.533142,1.000001 
	C265.480835,1.959214 265.822601,3.027305 266.470917,3.855387 
	C267.899384,5.679955 269.482544,7.383420 271.116089,9.716762 
	C271.379883,10.585985 271.585144,10.828241 271.845306,11.023981 
z"/>
<path fill="#99E6FC" opacity="1.000000" stroke="none" 
	d="
M247.608673,3.179816 
	C254.960846,10.387570 254.161835,19.481867 254.012558,28.448893 
	C253.921097,33.943768 253.744934,39.459324 254.131943,44.928432 
	C254.272842,46.919613 255.573776,50.014572 256.992493,50.438004 
	C258.889984,51.004322 261.849640,50.025230 263.577789,48.699215 
	C266.581757,46.394302 268.991974,43.315639 272.033447,40.280258 
	C272.415771,39.999119 272.835632,39.999802 272.835632,39.999802 
	C272.835632,45.461105 272.835632,50.922409 272.835632,57.782215 
	C280.580719,49.642502 287.445831,42.427601 294.706055,35.530506 
	C295.968079,37.260429 296.835907,38.671955 297.701691,40.084774 
	C301.715912,46.635551 300.929962,54.236954 295.659851,59.849796 
	C285.182892,71.008125 274.877258,82.334274 264.169403,93.266457 
	C257.072083,100.512444 253.243439,108.247177 253.754211,118.941536 
	C254.627640,137.228134 253.994644,155.586655 253.995438,173.914978 
	C253.996033,187.650772 257.048737,192.008026 269.940735,197.152985 
	C280.657166,201.429703 289.842621,207.881332 296.999146,217.014862 
	C309.024902,232.362778 313.258240,249.917725 310.843353,269.020233 
	C309.262451,281.525452 304.217010,292.423767 295.111511,301.663757 
	C286.457581,310.445465 276.256927,316.162811 265.122437,320.927704 
	C258.296631,323.848694 254.037643,329.390625 254.018097,337.268890 
	C253.963943,359.096100 253.869385,380.925110 254.137894,402.749176 
	C254.178268,406.031433 255.531433,409.624023 257.263123,412.474091 
	C259.301849,415.829529 262.351654,418.591156 265.073273,421.507385 
	C275.402863,432.575500 285.949890,443.448395 295.999878,454.763550 
	C298.218353,457.261292 300.062103,461.411133 299.728912,464.550873 
	C299.211823,469.423309 296.677979,474.081757 294.999084,478.830902 
	C289.395752,473.116364 283.763672,467.429504 278.208618,461.668427 
	C276.753265,460.159149 275.536865,458.419434 274.210724,456.785522 
	C273.802063,457.010010 273.393433,457.234497 272.984772,457.459015 
	C272.984772,462.675781 272.984772,467.892578 272.913696,473.578430 
	C269.752563,471.056458 266.885040,467.770752 263.479034,465.197998 
	C261.760468,463.899841 258.774475,462.992218 256.908173,463.596436 
	C255.490417,464.055359 254.214752,467.148193 254.126129,469.125092 
	C253.800140,476.398560 253.697525,483.710907 254.077805,490.978973 
	C254.457474,498.235046 253.304703,504.777740 248.024231,510.520203 
	C243.178894,507.543457 240.976501,502.960602 240.990021,497.197357 
	C241.020905,484.032898 240.999771,470.868256 240.999771,457.446014 
	C237.239334,461.008667 233.454163,464.265900 230.061020,467.890167 
	C225.502609,472.759064 221.797043,478.564209 214.896957,480.614868 
	C208.599228,482.486481 200.789169,479.893494 197.306610,474.779297 
	C193.798462,469.627655 194.010193,460.234772 198.012390,455.560638 
	C203.359375,449.315948 208.788513,443.132385 214.398148,437.124023 
	C222.203140,428.764191 230.267273,420.646301 238.071243,412.285583 
	C239.425369,410.834808 240.860764,408.701691 240.874847,406.873108 
	C241.060806,382.726074 240.998795,358.577087 240.998795,334.346741 
	C224.391357,330.135345 209.899734,322.634338 198.272385,309.691772 
	C187.206299,315.931000 176.234238,322.029724 165.349380,328.280273 
	C155.562164,333.900513 145.829117,339.618958 136.181946,345.474915 
	C134.738510,346.351105 133.370193,348.048218 132.855530,349.650879 
	C126.810158,368.475800 120.981186,387.370087 114.993484,406.213745 
	C112.210159,414.973053 102.854240,419.838959 94.331871,416.745483 
	C85.992859,413.718567 82.100060,404.580902 84.817795,396.491577 
	C87.569603,388.300842 89.656715,379.886810 92.271530,370.743378 
	C83.542526,375.772949 75.639526,380.667053 67.417885,384.949402 
	C61.503197,388.030151 56.507183,392.973450 49.048985,393.127747 
	C41.698204,393.279846 34.792221,388.388947 33.102489,381.977173 
	C31.077003,374.291382 34.781971,366.634796 41.652863,362.753448 
	C52.602634,356.568054 63.468647,350.234283 74.355690,343.938354 
	C74.885040,343.632233 75.276642,343.087921 75.853920,342.538910 
	C66.557114,340.312073 57.483921,338.403198 48.569645,335.923157 
	C40.904850,333.790741 35.468803,324.933105 37.228844,318.413544 
	C39.923862,308.430603 48.154716,302.977814 57.345341,305.153168 
	C76.329529,309.646606 95.295181,314.219452 114.303833,318.606354 
	C115.857452,318.964935 117.942177,318.612579 119.339592,317.816895 
	C137.706940,307.358673 156.081238,296.906708 174.263062,286.131317 
	C182.175690,281.441956 182.142380,281.067963 179.911194,271.842468 
	C176.958252,259.632690 178.043304,247.589005 181.255219,235.699158 
	C181.964783,233.072510 181.906555,232.130127 179.506454,230.756317 
	C160.035446,219.611389 140.671768,208.279083 121.246506,197.053864 
	C118.419312,195.420105 115.618828,194.987015 112.106285,195.867172 
	C93.964996,200.412994 75.707718,204.494263 57.504864,208.796661 
	C48.202522,210.995346 40.188175,205.868790 37.296783,195.740524 
	C35.435173,189.219482 40.765507,180.225235 48.396328,178.093018 
	C57.356518,175.589386 66.491737,173.712128 76.360962,171.371094 
	C69.035149,167.091309 62.087429,163.134781 55.244743,159.004257 
	C49.174961,155.340302 43.009804,151.776276 37.276257,147.629578 
	C31.429373,143.400925 31.677444,132.225632 35.554398,126.953995 
	C39.679607,121.344772 49.611336,118.961693 55.925426,122.482269 
	C66.350616,128.295074 76.591576,134.437820 86.930145,140.406952 
	C88.455132,141.287430 90.089531,141.978424 92.183929,143.008148 
	C89.687042,134.263626 87.420609,125.919159 84.910904,117.648506 
	C82.271324,108.949837 86.191750,100.142014 94.188469,97.316452 
	C102.506821,94.377235 112.338936,99.109131 114.968964,107.631050 
	C120.753868,126.375595 126.196365,145.227921 132.212799,163.896347 
	C133.003540,166.350006 136.057098,168.465027 138.541000,169.920517 
	C158.282211,181.488297 178.139130,192.858612 198.141281,204.393768 
	C209.869888,191.572769 224.191101,183.759171 241.000000,179.629959 
	C241.000000,161.570877 240.240356,143.383774 241.245148,125.294662 
	C242.021057,111.326111 239.377274,100.327087 227.875427,90.881203 
	C217.752258,82.567551 209.812988,71.639099 200.568405,62.199211 
	C190.398834,51.814789 194.872284,37.312847 204.104126,33.882172 
	C209.290512,31.954842 217.476776,32.951889 221.436890,37.017353 
	C227.764526,43.513332 233.911880,50.184921 241.000000,57.698742 
	C241.000000,50.557533 241.000015,44.508026 241.000000,38.458515 
	C240.999985,31.792494 241.233292,25.115898 240.931870,18.463531 
	C240.650818,12.260487 242.992279,7.395078 247.608673,3.179816 
M236.286194,288.632446 
	C252.067612,299.337738 272.086700,296.535400 285.793579,281.702271 
	C295.356964,271.353088 297.914337,254.467880 291.172607,240.723190 
	C284.508545,227.136856 273.406067,219.625778 257.127960,219.116058 
	C254.824463,219.395309 252.513565,219.624146 250.218689,219.962021 
	C236.007812,222.054382 223.224014,234.198395 220.149185,248.495453 
	C216.790466,264.112457 223.109787,280.020233 236.286194,288.632446 
z"/>
<path fill="#63DBFB" opacity="1.000000" stroke="none" 
	d="
M295.353943,479.010803 
	C296.677979,474.081757 299.211823,469.423309 299.728912,464.550873 
	C300.062103,461.411133 298.218353,457.261292 295.999878,454.763550 
	C285.949890,443.448395 275.402863,432.575500 265.073273,421.507385 
	C262.351654,418.591156 259.301849,415.829529 257.263123,412.474091 
	C255.531433,409.624023 254.178268,406.031433 254.137894,402.749176 
	C253.869385,380.925110 253.963943,359.096100 254.018097,337.268890 
	C254.037643,329.390625 258.296631,323.848694 265.122437,320.927704 
	C276.256927,316.162811 286.457581,310.445465 295.111511,301.663757 
	C304.217010,292.423767 309.262451,281.525452 310.843353,269.020233 
	C313.258240,249.917725 309.024902,232.362778 296.999146,217.014862 
	C289.842621,207.881332 280.657166,201.429703 269.940735,197.152985 
	C257.048737,192.008026 253.996033,187.650772 253.995438,173.914978 
	C253.994644,155.586655 254.627640,137.228134 253.754211,118.941536 
	C253.243439,108.247177 257.072083,100.512444 264.169403,93.266457 
	C274.877258,82.334274 285.182892,71.008125 295.659851,59.849796 
	C300.929962,54.236954 301.715912,46.635551 297.701691,40.084774 
	C296.835907,38.671955 295.968079,37.260429 295.038696,35.507767 
	C302.175659,30.978794 310.613159,32.247253 315.810608,38.299393 
	C320.293701,43.519691 320.501587,53.077885 315.881836,58.547863 
	C310.492310,64.929306 304.916412,71.164726 299.202057,77.257805 
	C290.948120,86.058815 282.496887,94.674805 273.820435,103.839447 
	C273.305969,104.552620 273.153900,104.825645 273.054871,105.128204 
	C273.054871,105.128204 273.031799,105.003021 272.816467,105.312027 
	C272.406433,106.416031 272.042847,107.210777 272.041656,108.006065 
	C272.007416,130.768372 271.992096,153.530777 272.053894,176.292953 
	C272.057220,177.518295 272.757507,178.741730 273.133362,179.966034 
	C289.936157,183.290359 303.860443,191.731583 315.842010,204.266830 
	C326.946014,197.964157 338.045410,191.736206 349.072601,185.382980 
	C358.442291,179.984711 367.812073,174.575790 376.988159,168.860687 
	C379.055695,167.572968 381.099976,165.244980 381.829651,162.970688 
	C387.725464,144.594406 393.237213,126.095398 399.010223,107.679001 
	C401.731445,98.998131 411.208832,94.349846 419.741547,97.231140 
	C427.698700,99.918076 431.731506,108.873009 429.112366,117.531845 
	C426.609283,125.807144 424.353607,134.157288 421.749664,143.317047 
	C430.509460,138.223434 438.407440,133.253876 446.657440,128.960815 
	C452.572388,125.882866 457.571777,120.691338 465.076019,120.933945 
	C473.294373,121.199638 479.056122,125.243057 480.861542,132.630310 
	C482.658691,139.983673 479.086609,147.466492 472.275513,151.338135 
	C460.929321,157.787659 449.682709,164.412384 437.923706,171.236359 
	C447.373230,173.574432 456.332825,175.543030 465.141327,178.043716 
	C473.213196,180.335312 478.723236,189.082245 476.718689,195.750366 
	C472.905945,208.433411 464.552307,210.432968 456.058136,208.520569 
	C437.036346,204.237991 418.123169,199.472549 399.099518,195.198853 
	C397.213409,194.775116 394.661804,196.022705 392.771423,197.108200 
	C373.317291,208.278976 353.912018,219.535934 334.596497,230.943970 
	C333.498901,231.592224 332.491882,233.979980 332.811371,235.199524 
	C336.603882,249.674454 336.900482,264.139557 332.668793,278.497620 
	C331.827667,281.351440 332.518158,282.090057 334.705200,283.345276 
	C354.022888,294.432373 373.244598,305.686707 392.559875,316.777985 
	C395.125610,318.251312 397.577026,319.141754 401.175507,318.216003 
	C419.601074,313.475830 438.192444,309.377319 456.737610,305.105621 
	C465.937927,302.986420 474.237823,308.555450 476.833099,318.478577 
	C478.533569,324.980408 473.063599,333.763702 465.380249,335.937927 
	C456.549164,338.436951 447.561951,340.384338 438.139984,342.694550 
	C442.192963,345.149750 446.173889,347.648682 450.237915,350.004181 
	C457.775665,354.373077 465.371002,358.642426 472.925476,362.982666 
	C480.287689,367.212463 483.643829,377.652435 479.684418,384.788116 
	C475.210724,392.850708 465.541260,395.511902 457.832855,391.292786 
	C445.934875,384.780518 434.230164,377.915192 421.563629,370.698303 
	C423.450836,376.770081 425.384491,381.991882 426.663605,387.369354 
	C428.133911,393.550629 431.703583,399.441315 429.321320,406.261810 
	C426.910309,413.164642 422.420563,416.699463 416.022156,417.061035 
	C405.775177,417.640137 401.167450,413.180481 399.043060,406.555756 
	C393.248779,388.486694 387.359528,370.434570 382.255096,352.166931 
	C380.910950,347.356567 377.913391,345.241150 374.449890,343.216034 
	C355.781219,332.300385 337.026062,321.531311 318.194305,310.900146 
	C317.192047,310.334290 314.701843,310.971802 313.782257,311.909821 
	C302.670197,323.244568 289.208832,330.233490 273.260468,334.330017 
	C272.393494,335.442444 272.040344,336.239014 272.039215,337.036133 
	C272.006622,359.803223 271.991638,382.570435 272.055359,405.337372 
	C272.058777,406.562836 272.771515,407.786316 273.154053,409.010712 
	C273.154053,409.010712 273.030823,408.992126 273.136627,409.148132 
	C273.393066,409.589172 273.600128,409.824554 273.863647,410.010345 
	C279.216827,415.805878 284.515259,421.653229 289.936371,427.384521 
	C297.535217,435.418060 305.206818,443.383087 312.882446,451.343506 
	C318.792175,457.472534 320.775787,465.942078 317.999115,472.182220 
	C314.409210,480.250092 304.627289,483.775360 295.353943,479.010803 
z"/>
<path fill="#75DDFB" opacity="1.000000" stroke="none" 
	d="
M273.073425,179.502655 
	C272.757507,178.741730 272.057220,177.518295 272.053894,176.292953 
	C271.992096,153.530777 272.007416,130.768372 272.041656,108.006065 
	C272.042847,107.210777 272.406433,106.416031 272.879272,105.301788 
	C273.109436,129.668121 273.061462,154.353699 273.073425,179.502655 
z"/>
<path fill="#75DDFB" opacity="1.000000" stroke="none" 
	d="
M273.085022,408.541046 
	C272.771515,407.786316 272.058777,406.562836 272.055359,405.337372 
	C271.991638,382.570435 272.006622,359.803223 272.039215,337.036133 
	C272.040344,336.239014 272.393494,335.442444 272.862366,334.337646 
	C273.100128,358.710266 273.058044,383.390839 273.085022,408.541046 
z"/>
<path fill="#77DFFB" opacity="1.000000" stroke="none" 
	d="
M272.909729,39.536739 
	C272.835632,39.999802 272.415771,39.999119 272.205811,39.996624 
	C272.001831,30.931440 272.007812,21.868752 272.027954,12.327536 
	C272.360657,14.167584 272.912476,16.482027 272.953674,18.805515 
	C273.073334,25.559626 272.988434,32.317364 272.909729,39.536739 
z"/>
<path fill="#77DFFB" opacity="1.000000" stroke="none" 
	d="
M271.887299,10.747458 
	C271.585144,10.828241 271.379883,10.585985 271.130035,10.079094 
	C271.330109,10.064295 271.629700,10.267614 271.887299,10.747458 
z"/>
<path fill="#75DDFB" opacity="1.000000" stroke="none" 
	d="
M273.318634,105.042427 
	C273.153900,104.825645 273.305969,104.552620 273.687561,104.153244 
	C273.770142,104.317123 273.676270,104.636887 273.318634,105.042427 
z"/>
<path fill="#75DDFB" opacity="1.000000" stroke="none" 
	d="
M273.909668,409.734985 
	C273.600128,409.824554 273.393066,409.589172 273.147278,409.086731 
	C273.353302,409.066101 273.654510,409.262878 273.909668,409.734985 
z"/>
<path fill="#F5F8F9" opacity="1.000000" stroke="none" 
	d="
M235.872498,288.076111 
	C223.109787,280.020233 216.790466,264.112457 220.149185,248.495453 
	C223.224014,234.198395 236.007812,222.054382 250.218689,219.962021 
	C252.513565,219.624146 254.824463,219.395309 257.622528,219.466156 
	C260.617828,222.681992 263.538330,225.282639 265.545074,228.460327 
	C273.378571,240.864532 274.841583,253.995071 268.249817,267.340240 
	C261.694977,280.610657 250.346725,286.910309 235.872498,288.076111 
z"/>
<path fill="#E7EDF2" opacity="1.000000" stroke="none" 
	d="
M236.079346,288.354279 
	C250.346725,286.910309 261.694977,280.610657 268.249817,267.340240 
	C274.841583,253.995071 273.378571,240.864532 265.545074,228.460327 
	C263.538330,225.282639 260.617828,222.681992 258.043396,219.495636 
	C273.406067,219.625778 284.508545,227.136856 291.172607,240.723190 
	C297.914337,254.467880 295.356964,271.353088 285.793579,281.702271 
	C272.086700,296.535400 252.067612,299.337738 236.079346,288.354279 
z"/>
</svg>