<svg version="1.1" id="Layer_1" xmlns="http://www.w3.org/2000/svg" xmlns:xlink="http://www.w3.org/1999/xlink" x="0px" y="0px"
	 width="100%" viewBox="0 0 315 68" enable-background="new 0 0 315 68" xml:space="preserve">
<path fill="#FDFDFE" opacity="1.000000" stroke="none" 
	d="
M1.000000,39.000000 
	C1.000000,26.340580 1.000000,13.681160 0.999999,1.016304 
	C105.932686,1.010870 210.865372,1.010870 315.899048,1.010870 
	C315.899048,23.585983 315.899048,46.172569 315.899048,68.879578 
	C211.000092,68.879578 106.000069,68.879578 1.000000,68.879578 
	C1.000000,59.593334 1.000000,50.265324 1.468644,40.491394 
	C10.584957,40.091454 19.233980,40.225998 27.878925,40.093807 
	C29.274574,40.072468 31.199541,39.239761 31.950531,38.144760 
	C37.484547,30.075731 42.782543,21.844833 48.455177,13.467155 
	C49.070587,12.599638 49.385643,11.929856 49.700703,11.260075 
	C49.132313,11.155341 48.563919,11.050608 47.536270,10.843962 
	C38.722282,10.806687 30.367548,10.871325 21.741039,10.896919 
	C21.329493,10.976072 21.189726,11.094269 20.754192,11.353643 
	C17.601379,15.705209 14.812979,19.964294 11.869634,24.113466 
	C8.315032,29.124315 4.629094,34.041996 1.000000,39.000000 
M98.097885,20.071249 
	C93.345451,20.071249 88.593025,20.071249 82.017685,20.071249 
	C86.959175,27.236639 88.056717,34.053677 85.994591,40.571369 
	C82.259216,39.867222 79.318306,39.312832 75.370888,38.568710 
	C76.120644,41.791309 76.326485,45.366028 77.082886,45.486591 
	C81.670052,46.217758 86.501656,46.888084 91.018044,46.149849 
	C95.023239,45.495174 96.280014,41.530594 96.287102,37.562298 
	C96.292435,34.576797 96.057518,31.560146 96.434311,28.622099 
	C96.572937,27.541187 98.159279,26.645941 99.142776,26.439655 
	C101.890808,31.268066 104.308556,27.339474 108.103508,25.023943 
	C107.082947,33.082180 106.222649,39.874966 105.375290,46.660187 
	C110.067314,46.660187 114.759338,46.660187 119.084137,46.660187 
	C118.208252,39.658409 117.365776,32.923687 116.655022,27.241884 
	C120.633575,27.470922 123.393326,27.629797 126.742867,28.560297 
	C126.866867,32.336426 126.332436,36.283371 127.258102,39.851524 
	C128.950211,46.373951 137.041061,49.127506 145.791443,46.766811 
	C150.587021,45.473049 151.053650,44.153549 149.520721,36.131035 
	C147.083984,36.131035 144.640244,36.131035 142.044250,36.131035 
	C141.960266,37.099007 142.145447,38.061733 141.763077,38.664330 
	C141.150803,39.629242 140.162262,40.355392 139.332764,41.182457 
	C138.594269,40.263084 137.287613,39.383789 137.219421,38.417137 
	C136.974686,34.947292 137.048584,31.442226 137.246307,27.964363 
	C137.287262,27.243954 138.398209,26.005505 138.977066,26.027563 
	C139.890015,26.062351 141.069885,26.766193 141.582230,27.549534 
	C142.129028,28.385542 142.032089,29.642590 142.187469,30.548515 
	C145.019058,30.548515 147.436264,30.548515 149.819778,30.548515 
	C150.655273,21.062685 150.157135,20.617733 142.091293,19.653919 
	C134.738129,18.775267 129.668182,21.764816 125.356445,27.311455 
	C125.356445,24.930685 125.356445,22.549917 125.356445,20.343376 
	C116.054474,20.343376 107.525108,20.343376 98.097885,20.071249 
M18.967299,55.781937 
	C27.961311,55.721233 36.955322,55.660530 46.535553,55.636662 
	C46.881916,55.173874 47.228279,54.711086 48.019318,53.780357 
	C54.399715,44.357792 60.780109,34.935230 67.780220,24.597473 
	C59.434891,24.597473 52.251644,24.597473 44.867661,24.597473 
	C41.643936,29.358198 38.159943,34.224476 34.993736,39.289410 
	C33.248405,42.081387 31.315031,43.433834 27.822605,43.357796 
	C25.960854,43.317257 23.679243,44.758232 22.269732,46.198536 
	C20.456591,48.051292 19.328365,50.574322 17.374691,53.164738 
	C17.025883,53.877155 16.677074,54.589569 16.328266,55.301991 
	C16.901600,55.412422 17.474936,55.522854 18.967299,55.781937 
M241.668121,46.995579 
	C244.356720,47.474968 245.454193,46.124695 246.155472,43.654045 
	C247.286392,39.669750 248.798141,35.793545 250.149017,31.871683 
	C250.538498,31.992882 250.927994,32.114082 251.317490,32.235283 
	C250.611816,37.045826 249.906128,41.856373 249.184982,46.772423 
	C253.836777,46.772423 257.773315,46.772423 261.445557,46.772423 
	C261.445557,37.796288 261.445557,29.062428 261.445557,20.020372 
	C257.493195,20.020372 253.502991,19.764050 249.558823,20.080883 
	C243.747910,20.547672 246.686707,27.098719 243.276260,29.513914 
	C242.127533,26.406403 240.984207,23.313503 239.880600,20.328032 
	C234.516891,20.328032 229.425934,20.328032 224.951736,20.328032 
	C224.951736,29.312016 224.951736,37.974472 224.951736,46.781555 
	C228.081024,46.781555 231.499130,46.781555 235.467041,46.781555 
	C234.826874,41.980110 234.222046,37.443691 233.617218,32.907272 
	C233.888245,32.884850 234.159271,32.862431 234.430313,32.840008 
	C236.573929,37.545952 238.717545,42.251892 241.668121,46.995579 
M164.285309,43.032555 
	C165.431931,43.978107 166.447037,45.198277 167.748062,45.821388 
	C173.201324,48.433159 179.077591,48.459412 183.997437,45.428574 
	C185.853958,44.284874 185.602814,39.719879 186.420914,36.255142 
	C182.729477,36.255142 180.188721,36.255142 178.651245,36.255142 
	C177.058731,38.314899 175.990570,39.696453 174.922394,41.078003 
	C174.194916,39.330746 173.093475,37.637447 172.831650,35.822998 
	C172.479599,33.383251 172.609924,30.831676 172.882874,28.366816 
	C172.978638,27.501917 174.107635,26.751438 174.764847,25.948715 
	C175.552429,26.609648 176.529922,27.145609 177.071411,27.968485 
	C177.562134,28.714176 177.577545,29.772646 177.765320,30.540983 
	C180.494324,30.540983 182.912216,30.540983 186.161667,30.540983 
	C185.646149,27.309057 185.794952,22.378374 184.644577,22.053907 
	C179.883331,20.710991 174.667419,20.070389 169.737915,20.510183 
	C165.491394,20.889038 162.517120,24.592485 162.330658,28.833706 
	C162.133362,33.321396 163.285843,37.868435 164.285309,43.032555 
M201.670090,22.387663 
	C200.882690,21.600054 200.133560,20.182636 199.301376,20.132069 
	C195.352509,19.892111 191.380981,20.024836 187.867126,20.024836 
	C187.867126,29.196220 187.867126,37.888226 187.867126,46.758217 
	C194.258835,46.758217 201.012482,46.758217 207.945740,46.758217 
	C207.945740,43.802071 207.945740,41.097225 207.945740,37.127865 
	C204.486053,38.525551 201.808167,39.607395 198.602631,40.902409 
	C198.496826,34.853405 196.475555,28.550743 201.670090,22.387663 
M209.793884,45.471718 
	C214.009720,46.162453 218.225571,46.853188 221.917755,47.458126 
	C221.917755,37.608875 221.917755,28.976059 221.917755,20.317745 
	C218.059677,20.317745 214.011032,20.317745 210.964066,20.317745 
	C210.547501,28.646452 210.150192,36.590290 209.793884,45.471718 
z"/>
<path fill="#167BFF" opacity="1.000000" stroke="none" 
	d="
M48.154831,13.664889 
	C42.782543,21.844833 37.484547,30.075731 31.950531,38.144760 
	C31.199541,39.239761 29.274574,40.072468 27.878925,40.093807 
	C19.233980,40.225998 10.584957,40.091454 1.468644,40.022736 
	C1.000000,40.000000 1.000000,39.500000 1.000000,39.250000 
	C4.629094,34.041996 8.315032,29.124315 11.869634,24.113466 
	C14.812979,19.964294 17.601379,15.705209 20.875774,11.483980 
	C21.533018,11.294079 21.772917,11.115021 22.012815,10.935963 
	C30.367548,10.871325 38.722282,10.806687 47.548615,11.296999 
	C48.065086,12.456262 48.109959,13.060575 48.154831,13.664889 
z"/>
<path fill="#504EE8" opacity="1.000000" stroke="none" 
	d="
M241.264648,46.976707 
	C238.717545,42.251892 236.573929,37.545952 234.430313,32.840008 
	C234.159271,32.862431 233.888245,32.884850 233.617218,32.907272 
	C234.222046,37.443691 234.826874,41.980110 235.467041,46.781555 
	C231.499130,46.781555 228.081024,46.781555 224.951736,46.781555 
	C224.951736,37.974472 224.951736,29.312016 224.951736,20.328032 
	C229.425934,20.328032 234.516891,20.328032 239.880600,20.328032 
	C240.984207,23.313503 242.127533,26.406403 243.276260,29.513914 
	C246.686707,27.098719 243.747910,20.547672 249.558823,20.080883 
	C253.502991,19.764050 257.493195,20.020372 261.445557,20.020372 
	C261.445557,29.062428 261.445557,37.796288 261.445557,46.772423 
	C257.773315,46.772423 253.836777,46.772423 249.184982,46.772423 
	C249.906128,41.856373 250.611816,37.045826 251.317490,32.235283 
	C250.927994,32.114082 250.538498,31.992882 250.149017,31.871683 
	C248.798141,35.793545 247.286392,39.669750 246.155472,43.654045 
	C245.454193,46.124695 244.356720,47.474968 241.264648,46.976707 
z"/>
<path fill="#5246E5" opacity="1.000000" stroke="none" 
	d="
M17.905109,52.808628 
	C19.328365,50.574322 20.456591,48.051292 22.269732,46.198536 
	C23.679243,44.758232 25.960854,43.317257 27.822605,43.357796 
	C31.315031,43.433834 33.248405,42.081387 34.993736,39.289410 
	C38.159943,34.224476 41.643936,29.358198 44.867661,24.597473 
	C52.251644,24.597473 59.434891,24.597473 67.780220,24.597473 
	C60.780109,34.935230 54.399715,44.357792 47.498814,54.022911 
	C46.635319,54.710251 46.292328,55.155041 45.949337,55.599831 
	C36.955322,55.660530 27.961311,55.721233 18.489576,55.354698 
	C17.976273,54.221184 17.940691,53.514904 17.905109,52.808628 
z"/>
<path fill="#5351E8" opacity="1.000000" stroke="none" 
	d="
M164.067032,42.711052 
	C163.285843,37.868435 162.133362,33.321396 162.330658,28.833706 
	C162.517120,24.592485 165.491394,20.889038 169.737915,20.510183 
	C174.667419,20.070389 179.883331,20.710991 184.644577,22.053907 
	C185.794952,22.378374 185.646149,27.309057 186.161667,30.540983 
	C182.912216,30.540983 180.494324,30.540983 177.765320,30.540983 
	C177.577545,29.772646 177.562134,28.714176 177.071411,27.968485 
	C176.529922,27.145609 175.552429,26.609648 174.764832,25.948715 
	C174.107635,26.751438 172.978638,27.501917 172.882874,28.366816 
	C172.609924,30.831676 172.479599,33.383251 172.831650,35.822998 
	C173.093475,37.637447 174.194916,39.330746 174.922394,41.078007 
	C175.990570,39.696453 177.058731,38.314899 178.651245,36.255142 
	C180.188721,36.255142 182.729477,36.255142 186.420914,36.255142 
	C185.602814,39.719879 185.853958,44.284874 183.997437,45.428574 
	C179.077591,48.459412 173.201324,48.433159 167.748062,45.821388 
	C166.447037,45.198277 165.431931,43.978107 164.067032,42.711052 
z"/>
<path fill="#080808" opacity="1.000000" stroke="none" 
	d="
M126.054741,27.881945 
	C129.668182,21.764816 134.738129,18.775267 142.091293,19.653919 
	C150.157135,20.617733 150.655273,21.062685 149.819778,30.548515 
	C147.436264,30.548515 145.019058,30.548515 142.187469,30.548515 
	C142.032089,29.642590 142.129028,28.385542 141.582230,27.549534 
	C141.069885,26.766193 139.890015,26.062351 138.977066,26.027563 
	C138.398209,26.005505 137.287262,27.243954 137.246307,27.964363 
	C137.048584,31.442226 136.974686,34.947292 137.219421,38.417137 
	C137.287613,39.383789 138.594269,40.263084 139.332764,41.182461 
	C140.162262,40.355392 141.150803,39.629242 141.763077,38.664330 
	C142.145447,38.061733 141.960266,37.099007 142.044250,36.131035 
	C144.640244,36.131035 147.083984,36.131035 149.520721,36.131035 
	C151.053650,44.153549 150.587021,45.473049 145.791443,46.766811 
	C137.041061,49.127506 128.950211,46.373951 127.258102,39.851524 
	C126.332436,36.283371 126.866867,32.336426 126.410690,28.188272 
	C126.078514,27.816248 126.054741,27.881945 126.054741,27.881945 
z"/>
<path fill="#0B0B0B" opacity="1.000000" stroke="none" 
	d="
M98.995743,20.343376 
	C107.525108,20.343376 116.054474,20.343376 125.356445,20.343376 
	C125.356445,22.549917 125.356445,24.930685 125.705597,27.596699 
	C126.054741,27.881945 126.078514,27.816248 126.115799,27.802460 
	C123.393326,27.629797 120.633575,27.470922 116.655022,27.241884 
	C117.365776,32.923687 118.208252,39.658409 119.084137,46.660187 
	C114.759338,46.660187 110.067314,46.660187 105.368820,46.663971 
	C106.222649,39.874966 107.082947,33.082180 108.103508,25.023943 
	C104.308556,27.339474 101.890808,31.268066 99.074799,25.674801 
	C99.003120,23.387756 98.999435,21.865566 98.995743,20.343376 
z"/>
<path fill="#4E4CE7" opacity="1.000000" stroke="none" 
	d="
M201.670166,22.802181 
	C196.475555,28.550743 198.496826,34.853405 198.602631,40.902409 
	C201.808167,39.607395 204.486053,38.525551 207.945740,37.127865 
	C207.945740,41.097225 207.945740,43.802071 207.945740,46.758217 
	C201.012482,46.758217 194.258835,46.758217 187.867126,46.758217 
	C187.867126,37.888226 187.867126,29.196220 187.867126,20.024836 
	C191.380981,20.024836 195.352509,19.892111 199.301376,20.132069 
	C200.133560,20.182636 200.882690,21.600054 201.670166,22.802181 
z"/>
<path fill="#060606" opacity="1.000000" stroke="none" 
	d="
M98.546814,20.207314 
	C98.999435,21.865566 99.003120,23.387756 99.046043,25.287977 
	C98.159279,26.645941 96.572937,27.541187 96.434311,28.622099 
	C96.057518,31.560146 96.292435,34.576797 96.287102,37.562298 
	C96.280014,41.530594 95.023239,45.495174 91.018044,46.149849 
	C86.501656,46.888084 81.670052,46.217758 77.082886,45.486591 
	C76.326485,45.366028 76.120644,41.791309 75.370888,38.568710 
	C79.318306,39.312832 82.259216,39.867222 85.994591,40.571369 
	C88.056717,34.053677 86.959175,27.236639 82.017685,20.071249 
	C88.593025,20.071249 93.345451,20.071249 98.546814,20.207314 
z"/>
<path fill="#514FE8" opacity="1.000000" stroke="none" 
	d="
M209.773376,45.002922 
	C210.150192,36.590290 210.547501,28.646452 210.964066,20.317745 
	C214.011032,20.317745 218.059677,20.317745 221.917755,20.317745 
	C221.917755,28.976059 221.917755,37.608875 221.917755,47.458126 
	C218.225571,46.853188 214.009720,46.162453 209.773376,45.002922 
z"/>
<path fill="#665BE8" opacity="1.000000" stroke="none" 
	d="
M17.639900,52.986683 
	C17.940691,53.514904 17.976273,54.221184 18.030064,55.280373 
	C17.474936,55.522854 16.901600,55.412422 16.328266,55.301987 
	C16.677074,54.589569 17.025883,53.877155 17.639900,52.986683 
z"/>
<path fill="#0A74FF" opacity="1.000000" stroke="none" 
	d="
M48.455177,13.467155 
	C48.109959,13.060575 48.065086,12.456262 48.007874,11.398911 
	C48.563919,11.050608 49.132313,11.155341 49.700703,11.260075 
	C49.385643,11.929856 49.070587,12.599638 48.455177,13.467155 
z"/>
<path fill="#665BE8" opacity="1.000000" stroke="none" 
	d="
M46.242447,55.618248 
	C46.292328,55.155041 46.635319,54.710251 47.276474,54.256882 
	C47.228279,54.711086 46.881916,55.173874 46.242447,55.618248 
z"/>
<path fill="#0A74FF" opacity="1.000000" stroke="none" 
	d="
M21.741039,10.896918 
	C21.772917,11.115021 21.533018,11.294079 21.171539,11.342802 
	C21.189726,11.094269 21.329493,10.976072 21.741039,10.896918 
z"/>
</svg>