<svg version="1.1" id="Layer_1" xmlns="http://www.w3.org/2000/svg" xmlns:xlink="http://www.w3.org/1999/xlink" x="0px" y="0px"
	 width="100%" viewBox="0 0 315 68" enable-background="new 0 0 315 68" xml:space="preserve">
<path fill="#FEFEFF" opacity="1.000000" stroke="none" 
	d="
M1.000000,39.000000 
	C1.000000,26.340580 1.000000,13.681160 0.999999,1.016304 
	C105.932686,1.010870 210.865372,1.010870 315.899048,1.010870 
	C315.899048,23.585983 315.899048,46.172569 315.899048,68.879578 
	C211.000092,68.879578 106.000069,68.879578 1.000000,68.879578 
	C1.000000,59.593334 1.000000,50.265324 1.468582,40.492912 
	C10.585340,40.094494 19.234869,40.229053 27.880320,40.096836 
	C29.276066,40.075489 31.201193,39.242626 31.952192,38.147518 
	C37.486069,30.077969 42.783890,21.846542 48.457062,13.468344 
	C49.073212,12.599395 49.388306,11.928175 49.703400,11.256954 
	C49.134045,11.152460 48.564690,11.047968 47.536163,10.841133 
	C38.722408,10.803740 30.367828,10.868689 21.741087,10.894161 
	C21.329067,10.973234 21.189211,11.091784 20.753159,11.350951 
	C17.930325,15.210752 15.466518,18.974592 12.862327,22.638651 
	C8.959966,28.129213 4.959018,33.549706 1.000000,39.000000 
M209.230408,42.048134 
	C208.699051,40.744175 208.167679,39.440216 207.286087,37.276840 
	C204.478531,38.452118 201.927780,39.519897 199.102158,40.702740 
	C196.728455,33.843395 199.162933,27.115547 202.207626,20.316238 
	C196.390259,20.316238 191.819260,20.316238 187.863922,20.316238 
	C187.863922,29.299864 187.863922,37.974262 187.863922,46.813446 
	C194.333145,46.813446 201.082611,46.813446 206.932922,46.813446 
	C208.219482,45.235958 209.088715,44.170174 209.782349,43.972279 
	C210.469513,44.982109 211.086166,46.796654 211.855927,46.864113 
	C215.413300,47.175896 219.013275,47.001770 221.920990,47.001770 
	C221.920990,37.594940 221.920990,28.942493 221.920990,20.325611 
	C217.984360,20.325611 213.917755,20.325611 209.365891,20.325611 
	C209.633499,22.272593 210.016846,23.845016 210.036270,25.421923 
	C210.105225,31.019804 210.050034,36.619217 209.230408,42.048134 
M17.372080,53.162399 
	C17.022482,53.876598 16.672884,54.590794 16.323286,55.304993 
	C16.898109,55.415268 17.472933,55.525543 18.966717,55.785522 
	C27.961082,55.724487 36.955448,55.663456 46.536865,55.640316 
	C46.883453,55.176708 47.230042,54.713100 48.021938,53.782135 
	C54.644363,43.932198 61.541676,34.250927 68.365211,23.409245 
	C66.130836,23.409245 65.633369,23.400314 65.136307,23.410597 
	C58.681320,23.544138 51.218502,21.722670 46.060799,24.378000 
	C41.108215,26.927734 38.398956,34.023357 34.990070,39.306030 
	C33.204048,42.073792 31.287828,43.419785 27.808784,43.353985 
	C25.946514,43.318760 23.671064,44.761635 22.262419,46.202568 
	C20.452185,48.054295 19.325172,50.573936 17.372080,53.162399 
M249.216141,34.099319 
	C249.648438,33.400990 250.080719,32.702663 250.513000,32.004333 
	C250.779465,32.102093 251.045929,32.199856 251.312408,32.297615 
	C250.614761,37.109226 249.917114,41.920841 249.217392,46.746735 
	C253.915298,46.746735 257.857391,46.746735 261.449677,46.746735 
	C261.449677,37.837864 261.449677,29.192408 261.449677,20.491785 
	C249.127701,18.382219 247.878357,18.975811 243.972153,28.964108 
	C243.900055,29.148478 243.572403,29.232903 243.197525,29.468639 
	C242.370819,27.035851 241.738205,24.605734 240.695068,22.366890 
	C240.237732,21.385355 238.973770,20.178623 238.022476,20.130350 
	C233.442719,19.897934 228.844681,20.025803 222.742828,20.025803 
	C227.658493,29.341814 225.836105,38.038914 223.807785,46.751022 
	C228.210251,46.751022 231.634781,46.751022 235.525757,46.751022 
	C234.818237,41.899578 234.153961,37.344673 233.489700,32.789772 
	C233.884140,32.683758 234.278580,32.577740 234.673035,32.471722 
	C236.097748,36.459511 237.353363,40.521519 239.050919,44.389565 
	C239.556107,45.540680 241.316101,46.835003 242.474884,46.810692 
	C243.639481,46.786263 245.293472,45.432007 245.815475,44.253944 
	C247.155716,41.229370 247.987183,37.979347 249.216141,34.099319 
M177.244431,37.638569 
	C176.404419,38.782005 175.564392,39.925438 174.724396,41.068867 
	C174.066742,39.921921 172.950272,38.816513 172.841934,37.619846 
	C172.573349,34.652779 172.589798,31.627232 172.873062,28.661610 
	C172.965134,27.697769 174.238464,26.846762 174.971497,25.944138 
	C175.697632,26.676451 176.568909,27.317135 177.106415,28.168524 
	C177.581558,28.921152 177.684845,29.908541 177.855042,30.470835 
	C180.663864,30.470835 183.064133,30.470835 186.495758,30.470835 
	C185.626175,27.014711 185.799530,23.230761 183.998215,21.488800 
	C180.405807,18.014776 170.089050,18.991343 166.061859,22.236876 
	C161.866653,25.617817 160.348495,34.065037 162.812698,40.315468 
	C164.803299,45.364624 170.070099,48.071674 176.806702,47.508148 
	C185.569748,46.775108 187.089203,44.702141 184.926376,35.680813 
	C182.463348,36.044933 179.937408,36.418358 177.244431,37.638569 
z"/>
<path fill="#167BFF" opacity="1.000000" stroke="none" 
	d="
M22.013248,10.933638 
	C30.367828,10.868689 38.722408,10.803740 47.548531,11.294779 
	C48.065388,12.455869 48.110703,13.060971 48.156013,13.666072 
	C42.783890,21.846542 37.486069,30.077969 31.952192,38.147518 
	C31.201193,39.242626 29.276066,40.075489 27.880320,40.096836 
	C19.234869,40.229053 10.585340,40.094494 1.468582,40.024254 
	C1.000000,40.000000 1.000000,39.500000 1.000000,39.250000 
	C4.959018,33.549706 8.959966,28.129213 12.862327,22.638651 
	C15.466518,18.974592 17.930325,15.210752 20.874630,11.482361 
	C21.532616,11.293315 21.772932,11.113477 22.013248,10.933638 
z"/>
<path fill="#504EE8" opacity="1.000000" stroke="none" 
	d="
M249.119080,34.459381 
	C247.987183,37.979347 247.155716,41.229370 245.815475,44.253944 
	C245.293472,45.432007 243.639481,46.786263 242.474884,46.810692 
	C241.316101,46.835003 239.556107,45.540680 239.050919,44.389565 
	C237.353363,40.521519 236.097748,36.459511 234.673035,32.471722 
	C234.278580,32.577740 233.884140,32.683758 233.489700,32.789772 
	C234.153961,37.344673 234.818237,41.899578 235.525757,46.751022 
	C231.634781,46.751022 228.210251,46.751022 223.807785,46.751022 
	C225.836105,38.038914 227.658493,29.341814 222.742828,20.025803 
	C228.844681,20.025803 233.442719,19.897934 238.022476,20.130350 
	C238.973770,20.178623 240.237732,21.385355 240.695068,22.366890 
	C241.738205,24.605734 242.370819,27.035851 243.197525,29.468639 
	C243.572403,29.232903 243.900055,29.148478 243.972153,28.964108 
	C247.878357,18.975811 249.127701,18.382219 261.449677,20.491785 
	C261.449677,29.192408 261.449677,37.837864 261.449677,46.746735 
	C257.857391,46.746735 253.915298,46.746735 249.217392,46.746735 
	C249.917114,41.920841 250.614761,37.109226 251.312408,32.297615 
	C251.045929,32.199856 250.779465,32.102093 250.513000,32.004333 
	C250.080719,32.702663 249.648438,33.400990 249.119080,34.459381 
z"/>
<path fill="#5246E5" opacity="1.000000" stroke="none" 
	d="
M45.949814,55.602425 
	C36.955448,55.663456 27.961082,55.724487 18.489216,55.357079 
	C17.975758,54.221043 17.939796,53.513447 17.903835,52.805851 
	C19.325172,50.573936 20.452185,48.054295 22.262419,46.202568 
	C23.671064,44.761635 25.946514,43.318760 27.808784,43.353985 
	C31.287828,43.419785 33.204048,42.073792 34.990070,39.306030 
	C38.398956,34.023357 41.108215,26.927734 46.060799,24.378000 
	C51.218502,21.722670 58.681320,23.544138 65.136307,23.410597 
	C65.633369,23.400314 66.130836,23.409245 68.365211,23.409245 
	C61.541676,34.250927 54.644363,43.932198 47.500435,54.023369 
	C46.635895,54.710545 46.292854,55.156487 45.949814,55.602425 
z"/>
<path fill="#5351E8" opacity="1.000000" stroke="none" 
	d="
M177.327942,37.215172 
	C179.937408,36.418358 182.463348,36.044933 184.926376,35.680813 
	C187.089203,44.702141 185.569748,46.775108 176.806702,47.508148 
	C170.070099,48.071674 164.803299,45.364624 162.812698,40.315468 
	C160.348495,34.065037 161.866653,25.617817 166.061859,22.236876 
	C170.089050,18.991343 180.405807,18.014776 183.998215,21.488800 
	C185.799530,23.230761 185.626175,27.014711 186.495758,30.470835 
	C183.064133,30.470835 180.663864,30.470835 177.855042,30.470835 
	C177.684845,29.908541 177.581558,28.921152 177.106415,28.168524 
	C176.568909,27.317135 175.697632,26.676451 174.971497,25.944141 
	C174.238464,26.846762 172.965134,27.697769 172.873062,28.661610 
	C172.589798,31.627232 172.573349,34.652779 172.841934,37.619846 
	C172.950272,38.816513 174.066742,39.921921 174.724396,41.068871 
	C175.564392,39.925438 176.404419,38.782005 177.327942,37.215172 
z"/>
<path fill="#4E4CE7" opacity="1.000000" stroke="none" 
	d="
M209.957947,43.104393 
	C209.088715,44.170174 208.219482,45.235958 206.932922,46.813446 
	C201.082611,46.813446 194.333145,46.813446 187.863922,46.813446 
	C187.863922,37.974262 187.863922,29.299864 187.863922,20.316238 
	C191.819260,20.316238 196.390259,20.316238 202.207626,20.316238 
	C199.162933,27.115547 196.728455,33.843395 199.102158,40.702740 
	C201.927780,39.519897 204.478531,38.452118 207.286087,37.276840 
	C208.167679,39.440216 208.699051,40.744175 209.610992,42.354111 
	C209.991592,42.660091 209.957947,43.104393 209.957947,43.104393 
z"/>
<path fill="#514FE8" opacity="1.000000" stroke="none" 
	d="
M209.870148,43.538338 
	C209.957947,43.104393 209.991592,42.660091 210.016754,42.439072 
	C210.050034,36.619217 210.105225,31.019804 210.036270,25.421923 
	C210.016846,23.845016 209.633499,22.272593 209.365891,20.325611 
	C213.917755,20.325611 217.984360,20.325611 221.920990,20.325611 
	C221.920990,28.942493 221.920990,37.594940 221.920990,47.001770 
	C219.013275,47.001770 215.413300,47.175896 211.855927,46.864113 
	C211.086166,46.796654 210.469513,44.982109 209.870148,43.538338 
z"/>
<path fill="#665BE8" opacity="1.000000" stroke="none" 
	d="
M17.637959,52.984123 
	C17.939796,53.513447 17.975758,54.221043 18.029736,55.282227 
	C17.472933,55.525543 16.898109,55.415268 16.323286,55.304993 
	C16.672884,54.590794 17.022482,53.876598 17.637959,52.984123 
z"/>
<path fill="#0A74FF" opacity="1.000000" stroke="none" 
	d="
M48.457066,13.468344 
	C48.110703,13.060971 48.065388,12.455869 48.007706,11.397121 
	C48.564690,11.047968 49.134045,11.152460 49.703400,11.256954 
	C49.388306,11.928175 49.073212,12.599395 48.457066,13.468344 
z"/>
<path fill="#665BE8" opacity="1.000000" stroke="none" 
	d="
M46.243340,55.621368 
	C46.292854,55.156487 46.635895,54.710545 47.277779,54.257050 
	C47.230042,54.713100 46.883453,55.176708 46.243340,55.621368 
z"/>
<path fill="#0A74FF" opacity="1.000000" stroke="none" 
	d="
M21.741087,10.894161 
	C21.772932,11.113477 21.532616,11.293315 21.170828,11.341743 
	C21.189211,11.091784 21.329067,10.973234 21.741087,10.894161 
z"/>
</svg>